<svg width="32" height="32" viewBox="0 0 32 32" fill="none" xmlns="http://www.w3.org/2000/svg">
<g clip-path="url(#clip0_4_90)">
<path d="M4.5918 32.0625C4.30776 31.7784 4.28659 31.4379 4.28704 31.0749C4.29339 25.9188 4.28837 20.7627 4.29368 15.6066C4.29524 14.0918 4.69051 12.6875 5.61507 11.4724C6.02147 10.9383 6.50032 10.4529 7.09218 10.1118C7.40647 9.93071 7.55575 9.72359 7.55285 9.32662C7.53178 6.44144 7.54332 3.55604 7.53736 0.670719C7.53691 0.450565 7.57309 0.261257 7.74045 0.0832539C9.02215 0.0625 10.2943 0.0625 11.5957 0.0625C11.8332 0.287993 11.8996 0.554508 11.899 0.859255C11.8938 3.734 11.9001 6.60878 11.8903 9.4835C11.8894 9.7452 11.9727 9.89806 12.1881 10.0371C13.7773 11.0625 14.6975 12.5303 15.0089 14.3845C15.0636 14.71 15.081 15.0451 15.0813 15.3757C15.0856 20.667 15.0828 25.9582 15.0887 31.2494C15.089 31.5305 15.0415 31.784 14.8837 32.041C11.457 32.0625 8.03906 32.0625 4.5918 32.0625ZM13.9165 28.1563C13.9164 23.9495 13.9158 19.7427 13.9169 15.5359C13.917 15.0881 13.8639 14.6449 13.7602 14.2128C13.388 12.6624 12.4878 11.5122 11.0816 10.7623C10.8325 10.6295 10.7203 10.4406 10.7261 10.1602C10.7345 9.75427 10.7202 9.34785 10.7301 8.942C10.7353 8.73027 10.6629 8.6398 10.4424 8.64464C9.96362 8.65516 9.48438 8.6543 9.00553 8.6463C8.79399 8.64276 8.70154 8.72015 8.70746 8.93771C8.71682 9.28107 8.70255 9.62506 8.71095 9.96847C8.72014 10.3441 8.59106 10.6312 8.24436 10.8094C8.051 10.9088 7.85478 11.0102 7.68139 11.1396C6.21858 12.2312 5.47521 13.7114 5.46731 15.5191C5.44534 20.5484 5.46067 25.5779 5.45592 30.6073C5.45571 30.832 5.51805 30.9199 5.75568 30.9193C8.36929 30.9129 10.9829 30.9128 13.5965 30.9194C13.8435 30.9201 13.9231 30.8356 13.9198 30.5928C13.909 29.8016 13.9162 29.0101 13.9165 28.1563ZM8.70955 7.19628C8.68206 7.41902 8.78927 7.48584 9.0009 7.48106C9.46939 7.4705 9.9386 7.46775 10.4069 7.48198C10.6528 7.48946 10.7343 7.40055 10.7319 7.15637C10.7221 6.1565 10.7219 5.1564 10.7325 4.15655C10.7351 3.91646 10.6702 3.81954 10.4155 3.8294C9.95787 3.84712 9.49856 3.84754 9.04094 3.82969C8.77811 3.81944 8.70141 3.91344 8.70454 4.16995C8.71659 5.15936 8.70942 6.149 8.70955 7.19628ZM10.728 1.72515C10.7279 1.64192 10.7225 1.55831 10.7286 1.47554C10.7417 1.29577 10.6779 1.2065 10.482 1.20925C9.97231 1.2164 9.46244 1.21299 8.95267 1.20991C8.78291 1.20888 8.70639 1.28233 8.7089 1.4543C8.71361 1.77675 8.71466 2.09942 8.7081 2.42181C8.70464 2.59226 8.76911 2.66816 8.94489 2.6664C9.46504 2.66121 9.98528 2.66204 10.5055 2.66579C10.6648 2.66694 10.7319 2.59876 10.7286 2.44112C10.7239 2.22274 10.7278 2.00418 10.728 1.72515Z" fill="white"/>
<path d="M19.5293 32.0625C19.1385 31.7239 19.2217 31.2914 19.3155 30.9004C19.5378 29.9735 20.1002 29.3183 21.0085 28.9768C21.3745 28.8392 21.7562 28.8139 22.1377 28.7953C22.3354 28.7857 22.4177 28.721 22.4173 28.5189C22.4136 26.7696 22.414 25.0204 22.4176 23.2711C22.418 23.0987 22.363 22.9935 22.1851 22.9637C20.142 22.6218 18.6862 20.9558 18.3371 18.9533C18.1479 17.8676 18.3639 16.833 18.5101 15.7815C18.6411 14.8391 18.781 13.8979 18.9155 12.956C19.0237 12.1982 19.1226 11.439 19.24 10.6827C19.2905 10.3572 19.5494 10.1548 19.8637 10.1572C21.9669 10.173 24.0703 10.1747 26.1735 10.1581C26.5771 10.1549 26.7848 10.4109 26.8335 10.7489C27.1001 12.6005 27.3728 14.4512 27.639 16.3029C27.711 16.8042 27.8249 17.3083 27.8198 17.8101C27.8077 19.0109 27.5519 20.1515 26.8046 21.1389C26.0516 22.1338 25.0756 22.7558 23.8424 22.9698C23.6699 22.9997 23.5807 23.0947 23.5813 23.2923C23.5874 25.0311 23.5874 26.77 23.5816 28.5089C23.5808 28.7321 23.6736 28.792 23.8814 28.7945C24.6239 28.8034 25.3202 28.9599 25.898 29.4705C26.3923 29.9072 26.6785 30.4488 26.7749 31.1019C26.8248 31.4396 26.8598 31.7606 26.5707 32.0421C24.2279 32.0625 21.8932 32.0625 19.5293 32.0625ZM25.1509 11.3345C23.7979 11.3348 22.4449 11.3352 21.0919 11.3352C20.3869 11.3352 20.3869 11.3349 20.244 12.0094C20.2354 12.0498 20.2199 12.0891 20.2143 12.1298C19.981 13.8085 19.7494 15.4875 19.5152 17.1661C19.4543 17.6029 19.4505 17.6029 19.9041 17.603C21.9961 17.6033 24.088 17.6032 26.1799 17.6031C26.2527 17.6031 26.3256 17.601 26.3984 17.6017C26.5672 17.6034 26.6166 17.5083 26.5954 17.3582C26.5114 16.7658 26.4285 16.1732 26.3417 15.5811C26.1603 14.3448 25.97 13.1097 25.7971 11.8722C25.7224 11.3369 25.7379 11.3348 25.1509 11.3345ZM22.9688 18.7728C21.832 18.7728 20.6951 18.7728 19.5513 18.7728C19.7714 20.4597 21.3336 22.0536 23.3884 21.8473C24.9952 21.686 26.3425 20.3576 26.4891 18.7728C25.3344 18.7728 24.1828 18.7728 22.9688 18.7728ZM25.1354 30.3937C24.8939 30.2546 24.6777 30.0599 24.387 30.0258C23.4763 29.9189 22.5644 29.9184 21.6543 30.0282C21.2009 30.0829 20.7249 30.4975 20.6476 30.8901C22.2441 30.8901 23.8371 30.8901 25.4478 30.8901C25.4035 30.6813 25.3024 30.5424 25.1354 30.3937Z" fill="white"/>
<path d="M12.9594 25.7499C12.9593 26.0103 12.9595 26.2394 12.9593 26.4686C12.9586 27.1314 12.753 27.3346 12.0775 27.3353C11.0567 27.3364 10.036 27.3356 9.01531 27.3355C8.43205 27.3354 7.84877 27.3373 7.26552 27.3343C6.66559 27.3312 6.41878 27.0848 6.41758 26.4763C6.41453 24.9348 6.41674 23.3933 6.41678 21.8518C6.41683 20.3728 6.41629 18.8938 6.41703 17.4148C6.41737 16.7325 6.60789 16.5416 7.28526 16.5414C8.91008 16.5411 10.5349 16.5406 12.1597 16.5416C12.7683 16.542 12.9588 16.7334 12.9589 17.3447C12.9597 20.136 12.9593 22.9274 12.9594 25.7499ZM7.58441 25.2184C7.58442 25.4161 7.59922 25.6152 7.58087 25.8112C7.5557 26.0801 7.64687 26.1748 7.92817 26.1714C9.09356 26.1572 10.2593 26.1569 11.4247 26.1714C11.715 26.175 11.7979 26.082 11.7968 25.7967C11.7875 23.2263 11.7862 20.6558 11.7974 18.0854C11.7988 17.7708 11.6827 17.7023 11.3962 17.7053C10.262 17.7176 9.12759 17.7092 7.99325 17.7095C7.58579 17.7096 7.58472 17.711 7.58465 18.1315C7.58427 20.473 7.58445 22.8145 7.58441 25.2184Z" fill="white"/>
</g>
<defs>
<clipPath id="clip0_4_90">
<rect width="32" height="32" fill="white"/>
</clipPath>
</defs>
</svg>
